{"asset":{"version":"2.0","generator":"VECTARY"},"nodes":[{"translation":[0,0,0],"scale":[1,1.0000000000000002,1.0000000000000002],"rotation":[0,0,0,1],"name":"fonargltf","children":[1,2,3,4,5,6,7,8,9,10,11,12,13,14,15,16,17,18,19]},{"translation":[0,0.058807626366615295,0.2510513961315155],"scale":[0.17299999296665192,0.06700000166893005,0.17299999296665192],"rotation":[0,0,0,1],"name":"Cylinder","mesh":0},{"translation":[0,0.4123802185058594,0.2510513961315155],"scale":[0.15600000321865082,0.2879999876022339,0.15600000321865082],"rotation":[6.123233995736766e-17,1,6.123233995736766e-17,-3.749399456654645e-33],"name":"Cylinder.001","mesh":1},{"translation":[0,0.7199286818504333,0.2510513961315155],"scale":[0.11900000274181366,0.028599999845027924,0.11900000274181366],"rotation":[0,0,0,1],"name":"Cylinder.002","mesh":2},{"translation":[0,0.8832194805145264,0.2510513961315155],"scale":[0.10599999874830246,0.13565471768379211,0.10599999874830246],"rotation":[0,0,0,1],"name":"Cylinder.003","mesh":3},{"translation":[0,1.0369656085968018,0.2510513961315155],"scale":[0.08749999850988388,0.024000000208616257,0.10000000149011612],"rotation":[0,0,0,1],"name":"Cylinder.004","mesh":4},{"translation":[0,1.4090168476104736,0.2510513961315155],"scale":[0.0860000029206276,0.35199999809265137,0.0860000029206276],"rotation":[0,0,0,1],"name":"Cylinder.005","mesh":5},{"translation":[0,1.1045191287994385,0.2510513961315155],"scale":[0.08749999850988388,0.021050000563263893,0.08749999850988388],"rotation":[0,0,0,1],"name":"Cylinder.006","mesh":6},{"translation":[0,1.7597477436065674,0.2510513961315155],"scale":[0.06757094711065292,0.019252358004450798,0.06757094711065292],"rotation":[0,0,0,1],"name":"Cylinder.007","mesh":7},{"translation":[0,2.135911703109741,0.2510513961315155],"scale":[0.05649999901652336,0.3019999861717224,0.05649999901652336],"rotation":[0,0,0,1],"name":"Cylinder.008","mesh":8},{"translation":[0,1.7899795770645142,0.2510513961315155],"scale":[0.07687131315469742,0.02190222591161728,0.07687131315469742],"rotation":[0,0,0,1],"name":"Cylinder.009","mesh":9},{"translation":[0,1.8189071416854858,0.2510513961315155],"scale":[0.06757094711065292,0.019252358004450798,0.06757094711065292],"rotation":[0,0,0,1],"name":"Cylinder.010","mesh":10},{"translation":[0,2.4418864250183105,0.2510513961315155],"scale":[0.05400000140070915,0.010649999603629112,0.05400000140070915],"rotation":[0,0,0,1],"name":"Cylinder.011","mesh":11},{"translation":[0,2.488563060760498,0.2510513961315155],"scale":[0.0989999994635582,0.03500000014901161,0.0989999994635582],"rotation":[0,0,0,1],"name":"Cylinder.012","mesh":12},{"translation":[0,2.650390625,0.2510513961315155],"scale":[0.12650015950202942,0.13699999451637268,0.1264999955892563],"rotation":[0,0,0,1],"name":"Cylinder.013","mesh":13},{"translation":[0,2.7968742847442627,0.2510513961315155],"scale":[0.14350000023841858,0.010400000028312206,0.14350000023841858],"rotation":[0,0,0,1],"name":"Cylinder.014","mesh":14},{"translation":[0,2.8443546295166016,0.2510513961315155],"scale":[0.11299999803304672,0.03610000014305115,0.11299999803304672],"rotation":[0,0,0,1],"name":"Cylinder.015","mesh":15},{"translation":[0,2.8913328647613525,0.2510513961315155],"scale":[0.030700000002980232,0.010850000195205212,0.030700000002980232],"rotation":[0,0,0,1],"name":"Cylinder.016","mesh":16},{"translation":[0,2.906916856765747,0.2510513961315155],"scale":[0.013732913881540298,0.005175055470317602,0.013732913881540298],"rotation":[0,0,0,1],"name":"Cylinder.017","mesh":17},{"translation":[0,2.9172775745391846,0.2510513961315155],"scale":[0.013732913881540298,0.005175055470317602,0.013732913881540298],"rotation":[0,0,0,1],"name":"Cylinder.018","mesh":18}],"materials":[{"pbrMetallicRoughness":{"baseColorFactor":[0,0,0,1],"metallicFactor":0,"roughnessFactor":0.2},"name":"Zambia","emissiveFactor":[0,0,0],"extensions":{},"alphaMode":"OPAQUE","doubleSided":false},{"pbrMetallicRoughness":{"baseColorFactor":[0.9743002023888613,0.9743002023888613,0.9743002023888613,1],"metallicFactor":0,"roughnessFactor":0.2},"name":"Maverick","emissiveFactor":[0,0,0],"extensions":{"KHR_materials_transmission":{"transmissionFactor":1},"KHR_materials_ior":{"ior":1.333},"KHR_materials_volume":{"thicknessFactor":0.01,"attenuationDistance":0.01,"attenuationColor":[1,1,1]}},"alphaMode":"OPAQUE","doubleSided":false}],"meshes":[{"primitives":[{"mode":4,"attributes":{"POSITION":1,"NORMAL":2},"material":0,"indices":0}]},{"primitives":[{"mode":4,"attributes":{"POSITION":4,"NORMAL":5},"material":0,"indices":3}]},{"primitives":[{"mode":4,"attributes":{"POSITION":7,"NORMAL":8},"material":0,"indices":6}]},{"primitives":[{"mode":4,"attributes":{"POSITION":10,"NORMAL":11},"material":0,"indices":9}]},{"primitives":[{"mode":4,"attributes":{"POSITION":13,"NORMAL":14},"material":0,"indices":12}]},{"primitives":[{"mode":4,"attributes":{"POSITION":16,"NORMAL":17},"material":0,"indices":15}]},{"primitives":[{"mode":4,"attributes":{"POSITION":19,"NORMAL":20},"material":0,"indices":18}]},{"primitives":[{"mode":4,"attributes":{"POSITION":22,"NORMAL":23},"material":0,"indices":21}]},{"primitives":[{"mode":4,"attributes":{"POSITION":25,"NORMAL":26},"material":0,"indices":24}]},{"primitives":[{"mode":4,"attributes":{"POSITION":28,"NORMAL":29},"material":0,"indices":27}]},{"primitives":[{"mode":4,"attributes":{"POSITION":31,"NORMAL":32},"material":0,"indices":30}]},{"primitives":[{"mode":4,"attributes":{"POSITION":34,"NORMAL":35},"material":0,"indices":33}]},{"primitives":[{"mode":4,"attributes":{"POSITION":37,"NORMAL":38},"material":0,"indices":36}]},{"primitives":[{"mode":4,"attributes":{"POSITION":40,"NORMAL":41},"material":1,"indices":39}]},{"primitives":[{"mode":4,"attributes":{"POSITION":43,"NORMAL":44},"material":0,"indices":42}]},{"primitives":[{"mode":4,"attributes":{"POSITION":46,"NORMAL":47},"material":0,"indices":45}]},{"primitives":[{"mode":4,"attributes":{"POSITION":49,"NORMAL":50},"material":0,"indices":48}]},{"primitives":[{"mode":4,"attributes":{"POSITION":52,"NORMAL":53},"material":0,"indices":51}]},{"primitives":[{"mode":4,"attributes":{"POSITION":55,"NORMAL":56},"material":0,"indices":54}]}],"accessors":[{"bufferView":0,"byteOffset":0,"componentType":5125,"count":948,"type":"SCALAR"},{"bufferView":1,"byteOffset":0,"componentType":5126,"count":160,"max":[1,1,1],"min":[-1,-1,-1],"type":"VEC3"},{"bufferView":2,"byteOffset":0,"componentType":5126,"count":160,"type":"VEC3"},{"bufferView":3,"byteOffset":0,"componentType":5125,"count":372,"type":"SCALAR"},{"bufferView":4,"byteOffset":0,"componentType":5126,"count":64,"max":[1,1.0000001192092896,1],"min":[-0.9807854294776917,-1,-1],"type":"VEC3"},{"bufferView":5,"byteOffset":0,"componentType":5126,"count":64,"type":"VEC3"},{"bufferView":6,"byteOffset":0,"componentType":5125,"count":372,"type":"SCALAR"},{"bufferView":7,"byteOffset":0,"componentType":5126,"count":64,"max":[1,1,1],"min":[-1,-1,-1],"type":"VEC3"},{"bufferView":8,"byteOffset":0,"componentType":5126,"count":64,"type":"VEC3"},{"bufferView":9,"byteOffset":0,"componentType":5125,"count":372,"type":"SCALAR"},{"bufferView":10,"byteOffset":0,"componentType":5126,"count":64,"max":[1,1.0000004768371582,1],"min":[-1,-1,-0.9807855486869812],"type":"VEC3"},{"bufferView":11,"byteOffset":0,"componentType":5126,"count":64,"type":"VEC3"},{"bufferView":12,"byteOffset":0,"componentType":5125,"count":372,"type":"SCALAR"},{"bufferView":13,"byteOffset":0,"componentType":5126,"count":64,"max":[1,1,1],"min":[-1,-1,-1],"type":"VEC3"},{"bufferView":14,"byteOffset":0,"componentType":5126,"count":64,"type":"VEC3"},{"bufferView":15,"byteOffset":0,"componentType":5125,"count":372,"type":"SCALAR"},{"bufferView":16,"byteOffset":0,"componentType":5126,"count":64,"max":[1,1.0000001192092896,1],"min":[-1,-1,-0.9807855486869812],"type":"VEC3"},{"bufferView":17,"byteOffset":0,"componentType":5126,"count":64,"type":"VEC3"},{"bufferView":18,"byteOffset":0,"componentType":5125,"count":372,"type":"SCALAR"},{"bufferView":19,"byteOffset":0,"componentType":5126,"count":64,"max":[1,1,1],"min":[-1,-1,-1],"type":"VEC3"},{"bufferView":20,"byteOffset":0,"componentType":5126,"count":64,"type":"VEC3"},{"bufferView":21,"byteOffset":0,"componentType":5125,"count":372,"type":"SCALAR"},{"bufferView":22,"byteOffset":0,"componentType":5126,"count":64,"max":[1,1,1],"min":[-1,-1,-1],"type":"VEC3"},{"bufferView":23,"byteOffset":0,"componentType":5126,"count":64,"type":"VEC3"},{"bufferView":24,"byteOffset":0,"componentType":5125,"count":372,"type":"SCALAR"},{"bufferView":25,"byteOffset":0,"componentType":5126,"count":64,"max":[1,1.0000001192092896,1],"min":[-1,-1,-0.9807855486869812],"type":"VEC3"},{"bufferView":26,"byteOffset":0,"componentType":5126,"count":64,"type":"VEC3"},{"bufferView":27,"byteOffset":0,"componentType":5125,"count":372,"type":"SCALAR"},{"bufferView":28,"byteOffset":0,"componentType":5126,"count":64,"max":[1,1,1],"min":[-1,-1,-1],"type":"VEC3"},{"bufferView":29,"byteOffset":0,"componentType":5126,"count":64,"type":"VEC3"},{"bufferView":30,"byteOffset":0,"componentType":5125,"count":372,"type":"SCALAR"},{"bufferView":31,"byteOffset":0,"componentType":5126,"count":64,"max":[1,1,1],"min":[-1,-1,-1],"type":"VEC3"},{"bufferView":32,"byteOffset":0,"componentType":5126,"count":64,"type":"VEC3"},{"bufferView":33,"byteOffset":0,"componentType":5125,"count":372,"type":"SCALAR"},{"bufferView":34,"byteOffset":0,"componentType":5126,"count":64,"max":[1,1,1],"min":[-1,-1,-1],"type":"VEC3"},{"bufferView":35,"byteOffset":0,"componentType":5126,"count":64,"type":"VEC3"},{"bufferView":36,"byteOffset":0,"componentType":5125,"count":564,"type":"SCALAR"},{"bufferView":37,"byteOffset":0,"componentType":5126,"count":96,"max":[1,1,1],"min":[-1,-1.0000039339065552,-1],"type":"VEC3"},{"bufferView":38,"byteOffset":0,"componentType":5126,"count":96,"type":"VEC3"},{"bufferView":39,"byteOffset":0,"componentType":5125,"count":372,"type":"SCALAR"},{"bufferView":40,"byteOffset":0,"componentType":5126,"count":64,"max":[0.9246668219566345,1.0000004768371582,0.9246668219566345],"min":[-0.9246668219566345,-1.0000011920928955,-0.9246668219566345],"type":"VEC3"},{"bufferView":41,"byteOffset":0,"componentType":5126,"count":64,"type":"VEC3"},{"bufferView":42,"byteOffset":0,"componentType":5125,"count":372,"type":"SCALAR"},{"bufferView":43,"byteOffset":0,"componentType":5126,"count":64,"max":[1,1,1],"min":[-1,-1,-1],"type":"VEC3"},{"bufferView":44,"byteOffset":0,"componentType":5126,"count":64,"type":"VEC3"},{"bufferView":45,"byteOffset":0,"componentType":5125,"count":948,"type":"SCALAR"},{"bufferView":46,"byteOffset":0,"componentType":5126,"count":160,"max":[1,1.0000035762786865,1],"min":[-1,-1,-1],"type":"VEC3"},{"bufferView":47,"byteOffset":0,"componentType":5126,"count":160,"type":"VEC3"},{"bufferView":48,"byteOffset":0,"componentType":5125,"count":948,"type":"SCALAR"},{"bufferView":49,"byteOffset":0,"componentType":5126,"count":160,"max":[1,1,1],"min":[-1,-1,-1],"type":"VEC3"},{"bufferView":50,"byteOffset":0,"componentType":5126,"count":160,"type":"VEC3"},{"bufferView":51,"byteOffset":0,"componentType":5125,"count":372,"type":"SCALAR"},{"bufferView":52,"byteOffset":0,"componentType":5126,"count":64,"max":[1,1,1],"min":[-1,-1,-1],"type":"VEC3"},{"bufferView":53,"byteOffset":0,"componentType":5126,"count":64,"type":"VEC3"},{"bufferView":54,"byteOffset":0,"componentType":5125,"count":372,"type":"SCALAR"},{"bufferView":55,"byteOffset":0,"componentType":5126,"count":64,"max":[1.174043893814087,0.99998939037323,1.1740435361862183],"min":[-1.174043893814087,-1,-1.1740442514419556],"type":"VEC3"},{"bufferView":56,"byteOffset":0,"componentType":5126,"count":64,"type":"VEC3"}],"bufferViews":[{"buffer":0,"byteOffset":0,"byteLength":3792,"target":34963},{"buffer":0,"byteOffset":3792,"byteLength":1920,"target":34962},{"buffer":0,"byteOffset":5712,"byteLength":1920,"target":34962},{"buffer":0,"byteOffset":7632,"byteLength":1488,"target":34963},{"buffer":0,"byteOffset":9120,"byteLength":768,"target":34962},{"buffer":0,"byteOffset":9888,"byteLength":768,"target":34962},{"buffer":0,"byteOffset":10656,"byteLength":1488,"target":34963},{"buffer":0,"byteOffset":12144,"byteLength":768,"target":34962},{"buffer":0,"byteOffset":12912,"byteLength":768,"target":34962},{"buffer":0,"byteOffset":13680,"byteLength":1488,"target":34963},{"buffer":0,"byteOffset":15168,"byteLength":768,"target":34962},{"buffer":0,"byteOffset":15936,"byteLength":768,"target":34962},{"buffer":0,"byteOffset":16704,"byteLength":1488,"target":34963},{"buffer":0,"byteOffset":18192,"byteLength":768,"target":34962},{"buffer":0,"byteOffset":18960,"byteLength":768,"target":34962},{"buffer":0,"byteOffset":19728,"byteLength":1488,"target":34963},{"buffer":0,"byteOffset":21216,"byteLength":768,"target":34962},{"buffer":0,"byteOffset":21984,"byteLength":768,"target":34962},{"buffer":0,"byteOffset":22752,"byteLength":1488,"target":34963},{"buffer":0,"byteOffset":24240,"byteLength":768,"target":34962},{"buffer":0,"byteOffset":25008,"byteLength":768,"target":34962},{"buffer":0,"byteOffset":25776,"byteLength":1488,"target":34963},{"buffer":0,"byteOffset":27264,"byteLength":768,"target":34962},{"buffer":0,"byteOffset":28032,"byteLength":768,"target":34962},{"buffer":0,"byteOffset":28800,"byteLength":1488,"target":34963},{"buffer":0,"byteOffset":30288,"byteLength":768,"target":34962},{"buffer":0,"byteOffset":31056,"byteLength":768,"target":34962},{"buffer":0,"byteOffset":31824,"byteLength":1488,"target":34963},{"buffer":0,"byteOffset":33312,"byteLength":768,"target":34962},{"buffer":0,"byteOffset":34080,"byteLength":768,"target":34962},{"buffer":0,"byteOffset":34848,"byteLength":1488,"target":34963},{"buffer":0,"byteOffset":36336,"byteLength":768,"target":34962},{"buffer":0,"byteOffset":37104,"byteLength":768,"target":34962},{"buffer":0,"byteOffset":37872,"byteLength":1488,"target":34963},{"buffer":0,"byteOffset":39360,"byteLength":768,"target":34962},{"buffer":0,"byteOffset":40128,"byteLength":768,"target":34962},{"buffer":0,"byteOffset":40896,"byteLength":2256,"target":34963},{"buffer":0,"byteOffset":43152,"byteLength":1152,"target":34962},{"buffer":0,"byteOffset":44304,"byteLength":1152,"target":34962},{"buffer":0,"byteOffset":45456,"byteLength":1488,"target":34963},{"buffer":0,"byteOffset":46944,"byteLength":768,"target":34962},{"buffer":0,"byteOffset":47712,"byteLength":768,"target":34962},{"buffer":0,"byteOffset":48480,"byteLength":1488,"target":34963},{"buffer":0,"byteOffset":49968,"byteLength":768,"target":34962},{"buffer":0,"byteOffset":50736,"byteLength":768,"target":34962},{"buffer":0,"byteOffset":51504,"byteLength":3792,"target":34963},{"buffer":0,"byteOffset":55296,"byteLength":1920,"target":34962},{"buffer":0,"byteOffset":57216,"byteLength":1920,"target":34962},{"buffer":0,"byteOffset":59136,"byteLength":3792,"target":34963},{"buffer":0,"byteOffset":62928,"byteLength":1920,"target":34962},{"buffer":0,"byteOffset":64848,"byteLength":1920,"target":34962},{"buffer":0,"byteOffset":66768,"byteLength":1488,"target":34963},{"buffer":0,"byteOffset":68256,"byteLength":768,"target":34962},{"buffer":0,"byteOffset":69024,"byteLength":768,"target":34962},{"buffer":0,"byteOffset":69792,"byteLength":1488,"target":34963},{"buffer":0,"byteOffset":71280,"byteLength":768,"target":34962},{"buffer":0,"byteOffset":72048,"byteLength":768,"target":34962}],"scene":0,"scenes":[{"nodes":[0],"name":"Project Name"}],"extensionsUsed":["KHR_texture_transform","KHR_materials_ior","KHR_materials_volume","KHR_materials_transmission"],"buffers":[{"byteLength":72816,"uri":"ProjectName.bin"}]}