# Blender 4.4.0
# www.blender.org
mtllib WoodenTable1.mtl
o Wooden_Table.001
v -1.028252 0.008732 0.640024
v -1.023798 0.894560 0.635570
v -1.028252 0.008732 0.519980
v -1.023798 0.894560 0.524434
v -0.908208 0.008732 0.640024
v -0.912662 0.894560 0.635570
v -0.908208 0.008732 0.519980
v -0.912662 0.894560 0.524434
v -1.014401 0.500669 0.626173
v -1.014401 0.500669 0.533830
v -0.922058 0.500669 0.533830
v -0.922058 0.500669 0.626173
v 1.028252 0.008732 0.640024
v 1.023798 0.894560 0.635570
v 1.028252 0.008732 0.519980
v 1.023798 0.894560 0.524434
v 0.908208 0.008732 0.640024
v 0.912662 0.894560 0.635570
v 0.908208 0.008732 0.519980
v 0.912662 0.894560 0.524434
v 1.014401 0.500669 0.626173
v 1.014401 0.500669 0.533830
v 0.922058 0.500669 0.533830
v 0.922058 0.500669 0.626173
v -1.028252 0.008732 -0.640024
v -1.023798 0.894560 -0.635570
v -1.028252 0.008732 -0.519980
v -1.023798 0.894560 -0.524434
v -0.908208 0.008732 -0.640024
v -0.912662 0.894560 -0.635570
v -0.908208 0.008732 -0.519980
v -0.912662 0.894560 -0.524434
v -1.014401 0.500669 -0.626173
v -1.014401 0.500669 -0.533830
v -0.922058 0.500669 -0.533830
v -0.922058 0.500669 -0.626173
v 1.028252 0.008732 -0.640024
v 1.023798 0.894560 -0.635570
v 1.028252 0.008732 -0.519980
v 1.023798 0.894560 -0.524434
v 0.908208 0.008732 -0.640024
v 0.912662 0.894560 -0.635570
v 0.908208 0.008732 -0.519980
v 0.912662 0.894560 -0.524434
v 1.014401 0.500669 -0.626173
v 1.014401 0.500669 -0.533830
v 0.922058 0.500669 -0.533830
v 0.922058 0.500669 -0.626173
v -1.190133 1.015066 0.736785
v 1.215388 1.015066 0.736785
v -1.215388 1.016851 -0.736785
v 1.268009 1.016851 -0.736785
v -1.215388 1.016851 -0.245595
v -1.190133 1.015066 0.245595
v 1.215388 1.015066 0.245595
v 1.268009 1.016851 -0.245595
v -1.259189 1.009956 -0.245595
v -1.259189 1.009956 0.245595
v 1.238953 1.009956 0.245595
v 1.238953 1.009956 -0.245595
v -1.190133 0.896486 0.245595
v -1.190133 0.896486 0.736785
v 1.215388 0.896486 0.736785
v 1.268009 0.896486 -0.245595
v 1.268009 0.896486 -0.736785
v -1.215388 0.896486 -0.736785
v -1.215388 0.896486 -0.245595
v 1.215388 0.896486 0.245595
v -1.259189 0.887155 -0.245595
v -1.259189 0.887155 0.245595
v 1.238953 0.887155 0.245595
v 1.238953 0.887155 -0.245595
vn -0.9997 -0.0239 -0.0000
vn -0.0000 -0.0238 -0.9997
vn 0.9997 -0.0238 -0.0000
vn -0.0000 -0.0238 0.9997
vn -0.0000 -1.0000 -0.0000
vn -0.0000 0.0281 0.9996
vn 0.9996 0.0281 -0.0000
vn -0.0000 0.0281 -0.9996
vn -0.9996 0.0281 -0.0000
vn 0.9997 -0.0239 -0.0000
vn -0.9997 -0.0238 -0.0000
vn -0.0000 -0.0239 -0.9997
vn -0.0000 1.0000 -0.0000
vn -0.0000 -0.0000 1.0000
vn -1.0000 -0.0000 -0.0000
vn -0.0000 -0.0000 -1.0000
vn 1.0000 -0.0000 -0.0000
vt 0.503932 0.854678
vt 0.530330 0.743341
vt 0.527892 0.854678
vt 0.563596 0.859289
vt 0.537199 0.970626
vt 0.539637 0.859289
vt 0.668015 0.720227
vt 0.694412 0.831564
vt 0.670453 0.831564
vt 0.269567 0.743341
vt 0.295964 0.854678
vt 0.272005 0.854678
vt 0.261732 0.742306
vt 0.230585 0.776239
vt 0.230585 0.742306
vt 0.268411 0.993740
vt 0.299558 0.993740
vt 0.666859 0.970626
vt 0.698006 0.970626
vt 0.536043 0.720227
vt 0.567190 0.720227
vt 0.531485 0.993740
vt 0.500339 0.993740
vt 0.462484 0.854678
vt 0.436087 0.743341
vt 0.464922 0.743341
vt 0.605045 0.859289
vt 0.631442 0.970626
vt 0.602607 0.970626
vt 0.405821 0.854678
vt 0.432218 0.743341
vt 0.429780 0.854678
vt 0.735861 0.831564
vt 0.762258 0.720227
vt 0.759820 0.831564
vt 0.261732 0.811868
vt 0.230585 0.777935
vt 0.261732 0.777935
vt 0.763414 0.970626
vt 0.433374 0.993740
vt 0.632598 0.720227
vt 0.601451 0.720227
vt 0.434931 0.993740
vt 0.466078 0.993740
vt 0.495188 0.854678
vt 0.468791 0.743341
vt 0.497626 0.743341
vt 0.328668 0.854678
vt 0.302271 0.743341
vt 0.331106 0.743341
vt 0.394076 0.882403
vt 0.367678 0.993740
vt 0.370116 0.882403
vt 0.572341 0.831564
vt 0.598738 0.720227
vt 0.596300 0.831564
vt 0.197881 0.777935
vt 0.229028 0.811868
vt 0.197881 0.811868
vt 0.599894 0.970626
vt 0.366523 0.743341
vt 0.301115 0.993740
vt 0.332262 0.993740
vt 0.467635 0.993740
vt 0.498782 0.993740
vt 0.727116 0.859289
vt 0.700719 0.970626
vt 0.703157 0.859289
vt 0.768565 0.831564
vt 0.794962 0.720227
vt 0.792524 0.831564
vt 0.334974 0.743341
vt 0.361372 0.854678
vt 0.337412 0.854678
vt 0.664146 0.970626
vt 0.637749 0.859289
vt 0.661708 0.859289
vt 0.197881 0.776239
vt 0.229028 0.742306
vt 0.229028 0.776239
vt 0.665302 0.720227
vt 0.634155 0.720227
vt 0.333819 0.993740
vt 0.364965 0.993740
vt 0.796117 0.970626
vt 0.764971 0.970626
vt 0.699563 0.720227
vt 0.730710 0.720227
vt 0.270818 0.017550
vt 0.398262 0.719532
vt 0.270819 0.719532
vt 0.672267 0.016999
vt 0.799711 0.696968
vt 0.672267 0.696968
vt 0.137002 0.017654
vt 0.264446 0.723804
vt 0.137002 0.723804
vt 0.404635 0.719532
vt 0.532078 0.017550
vt 0.532079 0.719532
vt 0.538451 0.696968
vt 0.665895 0.016999
vt 0.665895 0.696968
vt 0.003186 0.723804
vt 0.130630 0.017654
vt 0.130630 0.723804
vt 0.870588 0.719532
vt 0.901817 0.017550
vt 0.901818 0.719532
vt 0.098920 0.744929
vt 0.067690 0.883773
vt 0.067690 0.744929
vt 0.869010 0.017654
vt 0.837149 0.723804
vt 0.837148 0.017654
vt 0.968464 0.696968
vt 0.999231 0.016999
vt 0.999231 0.696968
vt 0.032658 0.744929
vt 0.000797 0.883773
vt 0.000797 0.744929
vt 0.164028 0.744929
vt 0.133261 0.883773
vt 0.133261 0.744929
vt 0.131711 0.744929
vt 0.100482 0.883773
vt 0.100482 0.744929
vt 0.066113 0.744929
vt 0.034251 0.883773
vt 0.034251 0.744929
vt 0.966925 0.016999
vt 0.936159 0.696968
vt 0.936159 0.016999
vt 0.934609 0.017550
vt 0.903379 0.719532
vt 0.903379 0.017550
vt 0.803694 0.723804
vt 0.835555 0.017654
vt 0.835555 0.723804
vt 0.196333 0.744929
vt 0.165567 0.883773
vt 0.165567 0.744929
vt 0.501495 0.743341
vt 0.566034 0.970626
vt 0.696850 0.720227
vt 0.298402 0.743341
vt 0.261732 0.776239
vt 0.438525 0.854678
vt 0.629004 0.859289
vt 0.403383 0.743341
vt 0.733423 0.720227
vt 0.230585 0.811868
vt 0.732267 0.970626
vt 0.402227 0.993740
vt 0.471229 0.854678
vt 0.304709 0.854678
vt 0.396514 0.993740
vt 0.569903 0.720227
vt 0.229028 0.777935
vt 0.568747 0.970626
vt 0.397669 0.743341
vt 0.729554 0.970626
vt 0.766127 0.720227
vt 0.363810 0.743341
vt 0.635311 0.970626
vt 0.197881 0.742306
vt 0.398262 0.017550
vt 0.799711 0.016999
vt 0.264446 0.017654
vt 0.404635 0.017550
vt 0.538451 0.016999
vt 0.003186 0.017654
vt 0.870588 0.017550
vt 0.098920 0.883773
vt 0.869010 0.723804
vt 0.968464 0.016999
vt 0.032658 0.883773
vt 0.164028 0.883773
vt 0.131711 0.883773
vt 0.066113 0.883773
vt 0.966926 0.696968
vt 0.934609 0.719532
vt 0.803693 0.017654
vt 0.196333 0.883773
s 1
usemtl Wood(Table)
f 9/1/1 4/2/1 10/3/1
f 10/4/2 8/5/2 11/6/2
f 8/7/3 12/8/3 11/9/3
f 6/10/4 9/11/4 12/12/4
f 7/13/5 1/14/5 3/15/5
f 5/16/6 9/11/6 1/17/6
f 7/18/7 12/8/7 5/19/7
f 10/4/8 7/20/8 3/21/8
f 9/1/9 3/22/9 1/23/9
f 21/24/10 16/25/10 14/26/10
f 22/27/2 20/28/2 16/29/2
f 24/30/11 20/31/11 23/32/11
f 21/33/4 18/34/4 24/35/4
f 13/36/5 19/37/5 15/38/5
f 17/39/6 21/33/6 24/35/6
f 19/40/9 24/30/9 23/32/9
f 19/41/8 22/27/8 15/42/8
f 15/43/7 21/24/7 13/44/7
f 33/45/1 28/46/1 26/47/1
f 34/48/4 32/49/4 28/50/4
f 36/51/3 32/52/3 35/53/3
f 33/54/12 30/55/12 36/56/12
f 25/57/5 31/58/5 27/59/5
f 29/60/8 33/54/8 36/56/8
f 31/61/7 36/51/7 35/53/7
f 31/62/6 34/48/6 27/63/6
f 27/64/9 33/45/9 25/65/9
f 45/66/10 40/67/10 46/68/10
f 46/69/4 44/70/4 47/71/4
f 44/72/11 48/73/11 47/74/11
f 42/75/12 45/76/12 48/77/12
f 43/78/5 37/79/5 39/80/5
f 41/81/8 45/76/8 37/82/8
f 43/83/9 48/73/9 41/84/9
f 46/69/6 43/85/6 39/86/6
f 45/66/7 39/87/7 37/88/7
f 56/89/13 51/90/13 53/91/13
f 50/92/13 54/93/13 49/94/13
f 59/95/13 57/96/13 58/97/13
f 66/98/5 64/99/5 67/100/5
f 61/101/5 63/102/5 62/103/5
f 69/104/5 71/105/5 70/106/5
f 67/107/14 56/108/14 53/109/14
f 66/110/15 53/111/15 51/112/15
f 72/113/16 57/114/16 60/115/16
f 62/116/14 50/117/14 49/118/14
f 69/119/15 58/120/15 57/121/15
f 63/122/17 55/123/17 50/124/17
f 64/125/17 52/126/17 56/127/17
f 71/128/17 60/129/17 59/130/17
f 68/131/16 54/132/16 55/133/16
f 65/134/16 51/135/16 52/136/16
f 70/137/14 59/138/14 58/139/14
f 61/140/15 49/141/15 54/142/15
f 9/1/1 2/143/1 4/2/1
f 10/4/2 4/144/2 8/5/2
f 8/7/3 6/145/3 12/8/3
f 6/10/4 2/146/4 9/11/4
f 7/13/5 5/147/5 1/14/5
f 5/16/6 12/12/6 9/11/6
f 7/18/7 11/9/7 12/8/7
f 10/4/8 11/6/8 7/20/8
f 9/1/9 10/3/9 3/22/9
f 21/24/10 22/148/10 16/25/10
f 22/27/2 23/149/2 20/28/2
f 24/30/11 18/150/11 20/31/11
f 21/33/4 14/151/4 18/34/4
f 13/36/5 17/152/5 19/37/5
f 17/39/6 13/153/6 21/33/6
f 19/40/9 17/154/9 24/30/9
f 19/41/8 23/149/8 22/27/8
f 15/43/7 22/148/7 21/24/7
f 33/45/1 34/155/1 28/46/1
f 34/48/4 35/156/4 32/49/4
f 36/51/3 30/157/3 32/52/3
f 33/54/12 26/158/12 30/55/12
f 25/57/5 29/159/5 31/58/5
f 29/60/8 25/160/8 33/54/8
f 31/61/7 29/161/7 36/51/7
f 31/62/6 35/156/6 34/48/6
f 27/64/9 34/155/9 33/45/9
f 45/66/10 38/162/10 40/67/10
f 46/69/4 40/163/4 44/70/4
f 44/72/11 42/164/11 48/73/11
f 42/75/12 38/165/12 45/76/12
f 43/78/5 41/166/5 37/79/5
f 41/81/8 48/77/8 45/76/8
f 43/83/9 47/74/9 48/73/9
f 46/69/6 47/71/6 43/85/6
f 45/66/7 46/68/7 39/87/7
f 56/89/13 52/167/13 51/90/13
f 50/92/13 55/168/13 54/93/13
f 59/95/13 60/169/13 57/96/13
f 66/98/5 65/170/5 64/99/5
f 61/101/5 68/171/5 63/102/5
f 69/104/5 72/172/5 71/105/5
f 67/107/14 64/173/14 56/108/14
f 66/110/15 67/174/15 53/111/15
f 72/113/16 69/175/16 57/114/16
f 62/116/14 63/176/14 50/117/14
f 69/119/15 70/177/15 58/120/15
f 63/122/17 68/178/17 55/123/17
f 64/125/17 65/179/17 52/126/17
f 71/128/17 72/180/17 60/129/17
f 68/131/16 61/181/16 54/132/16
f 65/134/16 66/182/16 51/135/16
f 70/137/14 71/183/14 59/138/14
f 61/140/15 62/184/15 49/141/15
